<?xml version="1.0" encoding="UTF-8"?>
<svg xmlns="http://www.w3.org/2000/svg" xmlns:xlink="http://www.w3.org/1999/xlink" width="94.1pt" height="93.4pt" viewBox="0 0 94.1 93.4">
<defs>
<clipPath id="clip-0">
<path clip-rule="nonzero" d="M 73 0 L 94.101562 0 L 94.101562 21 L 73 21 Z M 73 0 "/>
</clipPath>
<clipPath id="clip-1">
<path clip-rule="nonzero" d="M 56 0 L 94.101562 0 L 94.101562 41 L 56 41 Z M 56 0 "/>
</clipPath>
<clipPath id="clip-2">
<path clip-rule="nonzero" d="M 18 0 L 94.101562 0 L 94.101562 16 L 18 16 Z M 18 0 "/>
</clipPath>
<clipPath id="clip-3">
<path clip-rule="nonzero" d="M 2 73 L 33 73 L 33 93.398438 L 2 93.398438 Z M 2 73 "/>
</clipPath>
<clipPath id="clip-4">
<path clip-rule="nonzero" d="M 16 73 L 47 73 L 47 93.398438 L 16 93.398438 Z M 16 73 "/>
</clipPath>
<clipPath id="clip-5">
<path clip-rule="nonzero" d="M 34 73 L 65 73 L 65 93.398438 L 34 93.398438 Z M 34 73 "/>
</clipPath>
<clipPath id="clip-6">
<path clip-rule="nonzero" d="M 49 73 L 79 73 L 79 93.398438 L 49 93.398438 Z M 49 73 "/>
</clipPath>
<clipPath id="clip-7">
<path clip-rule="nonzero" d="M 6 64 L 29 64 L 29 93.398438 L 6 93.398438 Z M 6 64 "/>
</clipPath>
<clipPath id="clip-8">
<path clip-rule="nonzero" d="M 20 63 L 42 63 L 42 93.398438 L 20 93.398438 Z M 20 63 "/>
</clipPath>
<clipPath id="clip-9">
<path clip-rule="nonzero" d="M 38 64 L 61 64 L 61 93.398438 L 38 93.398438 Z M 38 64 "/>
</clipPath>
<clipPath id="clip-10">
<path clip-rule="nonzero" d="M 53 64 L 75 64 L 75 93.398438 L 53 93.398438 Z M 53 64 "/>
</clipPath>
<clipPath id="clip-11">
<path clip-rule="nonzero" d="M 74 8 L 94.101562 8 L 94.101562 39 L 74 39 Z M 74 8 "/>
</clipPath>
<clipPath id="clip-12">
<path clip-rule="nonzero" d="M 74 24 L 94.101562 24 L 94.101562 55 L 74 55 Z M 74 24 "/>
</clipPath>
<clipPath id="clip-13">
<path clip-rule="nonzero" d="M 72 41 L 94.101562 41 L 94.101562 72 L 72 72 Z M 72 41 "/>
</clipPath>
<clipPath id="clip-14">
<path clip-rule="nonzero" d="M 61 63 L 92 63 L 92 93.398438 L 61 93.398438 Z M 61 63 "/>
</clipPath>
<clipPath id="clip-15">
<path clip-rule="nonzero" d="M 70 57 L 94.101562 57 L 94.101562 87 L 70 87 Z M 70 57 "/>
</clipPath>
<clipPath id="clip-16">
<path clip-rule="nonzero" d="M 78 0 L 94.101562 0 L 94.101562 50 L 78 50 Z M 78 0 "/>
</clipPath>
<clipPath id="clip-17">
<path clip-rule="nonzero" d="M 57 12 L 94.101562 12 L 94.101562 56 L 57 56 Z M 57 12 "/>
</clipPath>
<clipPath id="clip-18">
<path clip-rule="nonzero" d="M 57 28 L 94.101562 28 L 94.101562 71 L 57 71 Z M 57 28 "/>
</clipPath>
<clipPath id="clip-19">
<path clip-rule="nonzero" d="M 53 45 L 94.101562 45 L 94.101562 86 L 53 86 Z M 53 45 "/>
</clipPath>
<clipPath id="clip-20">
<path clip-rule="nonzero" d="M 53 61 L 94.101562 61 L 94.101562 93.398438 L 53 93.398438 Z M 53 61 "/>
</clipPath>
<clipPath id="clip-21">
<path clip-rule="nonzero" d="M 76 28 L 94.101562 28 L 94.101562 67 L 76 67 Z M 76 28 "/>
</clipPath>
<clipPath id="clip-22">
<path clip-rule="nonzero" d="M 74 45 L 94.101562 45 L 94.101562 83 L 74 83 Z M 74 45 "/>
</clipPath>
</defs>
<path fill="none" stroke-width="0.74721" stroke-linecap="butt" stroke-linejoin="miter" stroke="rgb(0%, 0%, 0%)" stroke-opacity="1" stroke-miterlimit="10" d="M 70.423406 -59.591125 C 70.423406 -57.212219 72.345281 -55.29425 74.720281 -55.29425 C 77.095281 -55.29425 79.017156 -57.212219 79.017156 -59.591125 C 79.017156 -61.966125 77.095281 -63.888 74.720281 -63.888 C 72.345281 -63.888 70.423406 -61.966125 70.423406 -59.591125 Z M 70.423406 -59.591125 " transform="matrix(1, 0, 0, -1, -66.732, -29.888)"/>
<path fill="none" stroke-width="0.74721" stroke-linecap="butt" stroke-linejoin="miter" stroke="rgb(0%, 0%, 0%)" stroke-opacity="1" stroke-miterlimit="10" d="M 86.114812 -59.216125 C 86.114812 -56.841125 88.036687 -54.91925 90.411687 -54.91925 C 92.786687 -54.91925 94.708562 -56.841125 94.708562 -59.216125 C 94.708562 -61.591125 92.786687 -63.513 90.411687 -63.513 C 88.036687 -63.513 86.114812 -61.591125 86.114812 -59.216125 Z M 86.114812 -59.216125 " transform="matrix(1, 0, 0, -1, -66.732, -29.888)"/>
<path fill-rule="nonzero" fill="rgb(63.134766%, 61.567688%, 61.567688%)" fill-opacity="1" stroke-width="0.74721" stroke-linecap="butt" stroke-linejoin="miter" stroke="rgb(0%, 0%, 0%)" stroke-opacity="1" stroke-miterlimit="10" d="M 100.126531 -59.688781 C 100.126531 -57.309875 102.0445 -55.391906 104.423406 -55.391906 C 106.798406 -55.391906 108.720281 -57.309875 108.720281 -59.688781 C 108.720281 -62.055969 106.798406 -63.98175 104.423406 -63.98175 C 102.0445 -63.98175 100.126531 -62.055969 100.126531 -59.688781 Z M 100.126531 -59.688781 " transform="matrix(1, 0, 0, -1, -66.732, -29.888)"/>
<path fill="none" stroke-width="0.74721" stroke-linecap="butt" stroke-linejoin="miter" stroke="rgb(0%, 0%, 0%)" stroke-opacity="1" stroke-miterlimit="10" d="M 115.630437 -59.591125 C 115.630437 -57.212219 117.552312 -55.29425 119.927312 -55.29425 C 122.302312 -55.29425 124.224187 -57.212219 124.224187 -59.591125 C 124.224187 -61.966125 122.302312 -63.888 119.927312 -63.888 C 117.552312 -63.888 115.630437 -61.966125 115.630437 -59.591125 Z M 115.630437 -59.591125 " transform="matrix(1, 0, 0, -1, -66.732, -29.888)"/>
<path fill="none" stroke-width="0.74721" stroke-linecap="butt" stroke-linejoin="miter" stroke="rgb(0%, 0%, 0%)" stroke-opacity="1" stroke-miterlimit="10" d="M 129.82575 -59.774719 C 129.82575 -57.399719 131.747625 -55.48175 134.122625 -55.48175 C 136.501531 -55.48175 138.4195 -57.399719 138.4195 -59.774719 C 138.4195 -62.153625 136.501531 -64.071594 134.122625 -64.071594 C 131.747625 -64.071594 129.82575 -62.153625 129.82575 -59.774719 Z M 129.82575 -59.774719 " transform="matrix(1, 0, 0, -1, -66.732, -29.888)"/>
<path fill="none" stroke-width="0.74721" stroke-linecap="butt" stroke-linejoin="miter" stroke="rgb(0%, 0%, 0%)" stroke-opacity="1" stroke-miterlimit="10" d="M 70.423406 -74.907531 C 70.423406 -72.532531 72.345281 -70.610656 74.720281 -70.610656 C 77.095281 -70.610656 79.017156 -72.532531 79.017156 -74.907531 C 79.017156 -77.282531 77.095281 -79.204406 74.720281 -79.204406 C 72.345281 -79.204406 70.423406 -77.282531 70.423406 -74.907531 Z M 70.423406 -74.907531 " transform="matrix(1, 0, 0, -1, -66.732, -29.888)"/>
<path fill="none" stroke-width="0.74721" stroke-linecap="butt" stroke-linejoin="miter" stroke="rgb(0%, 0%, 0%)" stroke-opacity="1" stroke-miterlimit="10" d="M 86.114812 -74.532531 C 86.114812 -72.157531 88.036687 -70.235656 90.411687 -70.235656 C 92.786687 -70.235656 94.708562 -72.157531 94.708562 -74.532531 C 94.708562 -76.911437 92.786687 -78.829406 90.411687 -78.829406 C 88.036687 -78.829406 86.114812 -76.911437 86.114812 -74.532531 Z M 86.114812 -74.532531 " transform="matrix(1, 0, 0, -1, -66.732, -29.888)"/>
<path fill-rule="nonzero" fill="rgb(65.489197%, 63.134766%, 63.134766%)" fill-opacity="1" stroke-width="0.74721" stroke-linecap="butt" stroke-linejoin="miter" stroke="rgb(0%, 0%, 0%)" stroke-opacity="1" stroke-miterlimit="10" d="M 100.685125 -74.532531 C 100.685125 -72.157531 102.607 -70.235656 104.982 -70.235656 C 107.357 -70.235656 109.278875 -72.157531 109.278875 -74.532531 C 109.278875 -76.911437 107.357 -78.829406 104.982 -78.829406 C 102.607 -78.829406 100.685125 -76.911437 100.685125 -74.532531 Z M 100.685125 -74.532531 " transform="matrix(1, 0, 0, -1, -66.732, -29.888)"/>
<path fill="none" stroke-width="0.74721" stroke-linecap="butt" stroke-linejoin="miter" stroke="rgb(0%, 0%, 0%)" stroke-opacity="1" stroke-miterlimit="10" d="M 115.630437 -74.907531 C 115.630437 -72.532531 117.552312 -70.610656 119.927312 -70.610656 C 122.302312 -70.610656 124.224187 -72.532531 124.224187 -74.907531 C 124.224187 -77.282531 122.302312 -79.204406 119.927312 -79.204406 C 117.552312 -79.204406 115.630437 -77.282531 115.630437 -74.907531 Z M 115.630437 -74.907531 " transform="matrix(1, 0, 0, -1, -66.732, -29.888)"/>
<path fill="none" stroke-width="0.74721" stroke-linecap="butt" stroke-linejoin="miter" stroke="rgb(0%, 0%, 0%)" stroke-opacity="1" stroke-miterlimit="10" d="M 130.20075 -74.907531 C 130.20075 -72.532531 132.122625 -70.610656 134.497625 -70.610656 C 136.872625 -70.610656 138.7945 -72.532531 138.7945 -74.907531 C 138.7945 -77.282531 136.872625 -79.204406 134.497625 -79.204406 C 132.122625 -79.204406 130.20075 -77.282531 130.20075 -74.907531 Z M 130.20075 -74.907531 " transform="matrix(1, 0, 0, -1, -66.732, -29.888)"/>
<path fill="none" stroke-width="0.74721" stroke-linecap="butt" stroke-linejoin="miter" stroke="rgb(0%, 0%, 0%)" stroke-opacity="1" stroke-miterlimit="10" d="M 71.173406 -89.852844 C 71.173406 -87.473937 73.091375 -85.555969 75.466375 -85.555969 C 77.845281 -85.555969 79.76325 -87.473937 79.76325 -89.852844 C 79.76325 -92.227844 77.845281 -94.149719 75.466375 -94.149719 C 73.091375 -94.149719 71.173406 -92.227844 71.173406 -89.852844 Z M 71.173406 -89.852844 " transform="matrix(1, 0, 0, -1, -66.732, -29.888)"/>
<path fill="none" stroke-width="0.74721" stroke-linecap="butt" stroke-linejoin="miter" stroke="rgb(0%, 0%, 0%)" stroke-opacity="1" stroke-miterlimit="10" d="M 86.864812 -89.477844 C 86.864812 -87.102844 88.782781 -85.180969 91.157781 -85.180969 C 93.536687 -85.180969 95.454656 -87.102844 95.454656 -89.477844 C 95.454656 -91.852844 93.536687 -93.774719 91.157781 -93.774719 C 88.782781 -93.774719 86.864812 -91.852844 86.864812 -89.477844 Z M 86.864812 -89.477844 " transform="matrix(1, 0, 0, -1, -66.732, -29.888)"/>
<path fill-rule="nonzero" fill="rgb(63.134766%, 61.567688%, 61.567688%)" fill-opacity="1" stroke-width="0.74721" stroke-linecap="butt" stroke-linejoin="miter" stroke="rgb(0%, 0%, 0%)" stroke-opacity="1" stroke-miterlimit="10" d="M 101.435125 -89.477844 C 101.435125 -87.102844 103.353094 -85.180969 105.728094 -85.180969 C 108.107 -85.180969 110.024969 -87.102844 110.024969 -89.477844 C 110.024969 -91.852844 108.107 -93.774719 105.728094 -93.774719 C 103.353094 -93.774719 101.435125 -91.852844 101.435125 -89.477844 Z M 101.435125 -89.477844 " transform="matrix(1, 0, 0, -1, -66.732, -29.888)"/>
<path fill="none" stroke-width="0.74721" stroke-linecap="butt" stroke-linejoin="miter" stroke="rgb(0%, 0%, 0%)" stroke-opacity="1" stroke-miterlimit="10" d="M 116.376531 -89.852844 C 116.376531 -87.473937 118.298406 -85.555969 120.673406 -85.555969 C 123.048406 -85.555969 124.970281 -87.473937 124.970281 -89.852844 C 124.970281 -92.227844 123.048406 -94.149719 120.673406 -94.149719 C 118.298406 -94.149719 116.376531 -92.227844 116.376531 -89.852844 Z M 116.376531 -89.852844 " transform="matrix(1, 0, 0, -1, -66.732, -29.888)"/>
<path fill="none" stroke-width="0.74721" stroke-linecap="butt" stroke-linejoin="miter" stroke="rgb(0%, 0%, 0%)" stroke-opacity="1" stroke-miterlimit="10" d="M 130.946844 -89.852844 C 130.946844 -87.473937 132.868719 -85.555969 135.243719 -85.555969 C 137.622625 -85.555969 139.540594 -87.473937 139.540594 -89.852844 C 139.540594 -92.227844 137.622625 -94.149719 135.243719 -94.149719 C 132.868719 -94.149719 130.946844 -92.227844 130.946844 -89.852844 Z M 130.946844 -89.852844 " transform="matrix(1, 0, 0, -1, -66.732, -29.888)"/>
<path fill="none" stroke-width="0.74721" stroke-linecap="butt" stroke-linejoin="miter" stroke="rgb(0%, 0%, 0%)" stroke-opacity="1" stroke-miterlimit="10" d="M 79.76325 -104.79425 C 79.76325 -102.41925 81.685125 -100.501281 84.060125 -100.501281 C 86.435125 -100.501281 88.357 -102.41925 88.357 -104.79425 C 88.357 -107.173156 86.435125 -109.091125 84.060125 -109.091125 C 81.685125 -109.091125 79.76325 -107.173156 79.76325 -104.79425 Z M 79.76325 -104.79425 " transform="matrix(1, 0, 0, -1, -66.732, -29.888)"/>
<path fill="none" stroke-width="0.74721" stroke-linecap="butt" stroke-linejoin="miter" stroke="rgb(0%, 0%, 0%)" stroke-opacity="1" stroke-miterlimit="10" d="M 93.399969 -104.423156 C 93.399969 -102.04425 95.321844 -100.126281 97.696844 -100.126281 C 100.071844 -100.126281 101.993719 -102.04425 101.993719 -104.423156 C 101.993719 -106.798156 100.071844 -108.720031 97.696844 -108.720031 C 95.321844 -108.720031 93.399969 -106.798156 93.399969 -104.423156 Z M 93.399969 -104.423156 " transform="matrix(1, 0, 0, -1, -66.732, -29.888)"/>
<path fill="none" stroke-width="0.74721" stroke-linecap="butt" stroke-linejoin="miter" stroke="rgb(0%, 0%, 0%)" stroke-opacity="1" stroke-miterlimit="10" d="M 111.521062 -104.79425 C 111.521062 -102.41925 113.442937 -100.501281 115.817937 -100.501281 C 118.192937 -100.501281 120.114812 -102.41925 120.114812 -104.79425 C 120.114812 -107.173156 118.192937 -109.091125 115.817937 -109.091125 C 113.442937 -109.091125 111.521062 -107.173156 111.521062 -104.79425 Z M 111.521062 -104.79425 " transform="matrix(1, 0, 0, -1, -66.732, -29.888)"/>
<path fill="none" stroke-width="0.74721" stroke-linecap="butt" stroke-linejoin="miter" stroke="rgb(0%, 0%, 0%)" stroke-opacity="1" stroke-miterlimit="10" d="M 126.091375 -104.79425 C 126.091375 -102.41925 128.01325 -100.501281 130.38825 -100.501281 C 132.76325 -100.501281 134.685125 -102.41925 134.685125 -104.79425 C 134.685125 -107.173156 132.76325 -109.091125 130.38825 -109.091125 C 128.01325 -109.091125 126.091375 -107.173156 126.091375 -104.79425 Z M 126.091375 -104.79425 " transform="matrix(1, 0, 0, -1, -66.732, -29.888)"/>
<path fill="none" stroke-width="0.74721" stroke-linecap="butt" stroke-linejoin="miter" stroke="rgb(0%, 0%, 0%)" stroke-opacity="1" stroke-miterlimit="10" d="M 81.071844 -47.259094 C 81.071844 -44.884094 82.993719 -42.966125 85.368719 -42.966125 C 87.743719 -42.966125 89.665594 -44.884094 89.665594 -47.259094 C 89.665594 -49.638 87.743719 -51.555969 85.368719 -51.555969 C 82.993719 -51.555969 81.071844 -49.638 81.071844 -47.259094 Z M 81.071844 -47.259094 " transform="matrix(1, 0, 0, -1, -66.732, -29.888)"/>
<path fill="none" stroke-width="0.74721" stroke-linecap="butt" stroke-linejoin="miter" stroke="rgb(0%, 0%, 0%)" stroke-opacity="1" stroke-miterlimit="10" d="M 96.76325 -46.888 C 96.76325 -44.513 98.685125 -42.591125 101.060125 -42.591125 C 103.435125 -42.591125 105.357 -44.513 105.357 -46.888 C 105.357 -49.263 103.435125 -51.184875 101.060125 -51.184875 C 98.685125 -51.184875 96.76325 -49.263 96.76325 -46.888 Z M 96.76325 -46.888 " transform="matrix(1, 0, 0, -1, -66.732, -29.888)"/>
<path fill-rule="nonzero" fill="rgb(63.134766%, 61.567688%, 61.567688%)" fill-opacity="1" stroke-width="0.74721" stroke-linecap="butt" stroke-linejoin="miter" stroke="rgb(0%, 0%, 0%)" stroke-opacity="1" stroke-miterlimit="10" d="M 111.333562 -46.888 C 111.333562 -44.513 113.255437 -42.591125 115.630437 -42.591125 C 118.005437 -42.591125 119.927312 -44.513 119.927312 -46.888 C 119.927312 -49.263 118.005437 -51.184875 115.630437 -51.184875 C 113.255437 -51.184875 111.333562 -49.263 111.333562 -46.888 Z M 111.333562 -46.888 " transform="matrix(1, 0, 0, -1, -66.732, -29.888)"/>
<path fill="none" stroke-width="0.74721" stroke-linecap="butt" stroke-linejoin="miter" stroke="rgb(0%, 0%, 0%)" stroke-opacity="1" stroke-miterlimit="10" d="M 126.278875 -47.259094 C 126.278875 -44.884094 128.196844 -42.966125 130.57575 -42.966125 C 132.95075 -42.966125 134.872625 -44.884094 134.872625 -47.259094 C 134.872625 -49.638 132.95075 -51.555969 130.57575 -51.555969 C 128.196844 -51.555969 126.278875 -49.638 126.278875 -47.259094 Z M 126.278875 -47.259094 " transform="matrix(1, 0, 0, -1, -66.732, -29.888)"/>
<path fill="none" stroke-width="0.74721" stroke-linecap="butt" stroke-linejoin="miter" stroke="rgb(0%, 0%, 0%)" stroke-opacity="1" stroke-miterlimit="10" d="M 140.474187 -47.446594 C 140.474187 -45.071594 142.396062 -43.149719 144.771062 -43.149719 C 147.146062 -43.149719 149.067937 -45.071594 149.067937 -47.446594 C 149.067937 -49.8255 147.146062 -51.743469 144.771062 -51.743469 C 142.396062 -51.743469 140.474187 -49.8255 140.474187 -47.446594 Z M 140.474187 -47.446594 " transform="matrix(1, 0, 0, -1, -66.732, -29.888)"/>
<path fill="none" stroke-width="0.74721" stroke-linecap="butt" stroke-linejoin="miter" stroke="rgb(0%, 0%, 0%)" stroke-opacity="1" stroke-miterlimit="10" d="M 91.720281 -34.930969 C 91.720281 -32.555969 93.63825 -30.634094 96.017156 -30.634094 C 98.392156 -30.634094 100.314031 -32.555969 100.314031 -34.930969 C 100.314031 -37.309875 98.392156 -39.227844 96.017156 -39.227844 C 93.63825 -39.227844 91.720281 -37.309875 91.720281 -34.930969 Z M 91.720281 -34.930969 " transform="matrix(1, 0, 0, -1, -66.732, -29.888)"/>
<path fill="none" stroke-width="0.74721" stroke-linecap="butt" stroke-linejoin="miter" stroke="rgb(0%, 0%, 0%)" stroke-opacity="1" stroke-miterlimit="10" d="M 107.411687 -34.559875 C 107.411687 -32.180969 109.329656 -30.263 111.708562 -30.263 C 114.083562 -30.263 116.005437 -32.180969 116.005437 -34.559875 C 116.005437 -36.934875 114.083562 -38.85675 111.708562 -38.85675 C 109.329656 -38.85675 107.411687 -36.934875 107.411687 -34.559875 Z M 107.411687 -34.559875 " transform="matrix(1, 0, 0, -1, -66.732, -29.888)"/>
<path fill-rule="nonzero" fill="rgb(63.134766%, 61.567688%, 61.567688%)" fill-opacity="1" stroke-width="0.74721" stroke-linecap="butt" stroke-linejoin="miter" stroke="rgb(0%, 0%, 0%)" stroke-opacity="1" stroke-miterlimit="10" d="M 121.4195 -35.028625 C 121.4195 -32.653625 123.341375 -30.73175 125.716375 -30.73175 C 128.095281 -30.73175 130.01325 -32.653625 130.01325 -35.028625 C 130.01325 -37.395812 128.095281 -39.3255 125.716375 -39.3255 C 123.341375 -39.3255 121.4195 -37.395812 121.4195 -35.028625 Z M 121.4195 -35.028625 " transform="matrix(1, 0, 0, -1, -66.732, -29.888)"/>
<path fill="none" stroke-width="0.74721" stroke-linecap="butt" stroke-linejoin="miter" stroke="rgb(0%, 0%, 0%)" stroke-opacity="1" stroke-miterlimit="10" d="M 136.927312 -34.930969 C 136.927312 -32.555969 138.845281 -30.634094 141.224187 -30.634094 C 143.599187 -30.634094 145.517156 -32.555969 145.517156 -34.930969 C 145.517156 -37.309875 143.599187 -39.227844 141.224187 -39.227844 C 138.845281 -39.227844 136.927312 -37.309875 136.927312 -34.930969 Z M 136.927312 -34.930969 " transform="matrix(1, 0, 0, -1, -66.732, -29.888)"/>
<g clip-path="url(#clip-0)">
<path fill="none" stroke-width="0.74721" stroke-linecap="butt" stroke-linejoin="miter" stroke="rgb(0%, 0%, 0%)" stroke-opacity="1" stroke-miterlimit="10" d="M 151.122625 -35.118469 C 151.122625 -32.743469 153.0445 -30.821594 155.4195 -30.821594 C 157.7945 -30.821594 159.716375 -32.743469 159.716375 -35.118469 C 159.716375 -37.493469 157.7945 -39.415344 155.4195 -39.415344 C 153.0445 -39.415344 151.122625 -37.493469 151.122625 -35.118469 Z M 151.122625 -35.118469 " transform="matrix(1, 0, 0, -1, -66.732, -29.888)"/>
</g>
<path fill="none" stroke-width="0.74721" stroke-linecap="butt" stroke-linejoin="miter" stroke="rgb(0%, 0%, 0%)" stroke-opacity="1" stroke-miterlimit="10" d="M 74.720281 -59.591125 L 75.466375 -89.852844 " transform="matrix(1, 0, 0, -1, -66.732, -29.888)"/>
<path fill="none" stroke-width="0.74721" stroke-linecap="butt" stroke-linejoin="miter" stroke="rgb(0%, 0%, 0%)" stroke-opacity="1" stroke-miterlimit="10" d="M 90.411687 -59.216125 L 91.157781 -89.477844 " transform="matrix(1, 0, 0, -1, -66.732, -29.888)"/>
<path fill-rule="nonzero" fill="rgb(63.134766%, 61.567688%, 61.567688%)" fill-opacity="1" stroke-width="0.74721" stroke-linecap="butt" stroke-linejoin="miter" stroke="rgb(0%, 0%, 0%)" stroke-opacity="1" stroke-miterlimit="10" d="M 104.610906 -59.403625 L 105.357 -89.665344 " transform="matrix(1, 0, 0, -1, -66.732, -29.888)"/>
<path fill="none" stroke-width="0.74721" stroke-linecap="butt" stroke-linejoin="miter" stroke="rgb(0%, 0%, 0%)" stroke-opacity="1" stroke-miterlimit="10" d="M 119.552312 -59.774719 L 120.302312 -90.040344 " transform="matrix(1, 0, 0, -1, -66.732, -29.888)"/>
<path fill="none" stroke-width="0.74721" stroke-linecap="butt" stroke-linejoin="miter" stroke="rgb(0%, 0%, 0%)" stroke-opacity="1" stroke-miterlimit="10" d="M 134.122625 -59.774719 L 134.872625 -90.040344 " transform="matrix(1, 0, 0, -1, -66.732, -29.888)"/>
<path fill="none" stroke-width="0.74721" stroke-linecap="butt" stroke-linejoin="miter" stroke="rgb(0%, 0%, 0%)" stroke-opacity="1" stroke-miterlimit="10" d="M 74.720281 -59.591125 L 96.017156 -34.930969 " transform="matrix(1, 0, 0, -1, -66.732, -29.888)"/>
<path fill="none" stroke-width="0.74721" stroke-linecap="butt" stroke-linejoin="miter" stroke="rgb(0%, 0%, 0%)" stroke-opacity="1" stroke-miterlimit="10" d="M 90.411687 -59.216125 L 111.708562 -34.559875 " transform="matrix(1, 0, 0, -1, -66.732, -29.888)"/>
<path fill="none" stroke-width="0.74721" stroke-linecap="butt" stroke-linejoin="miter" stroke="rgb(0%, 0%, 0%)" stroke-opacity="1" stroke-miterlimit="10" d="M 104.982 -59.216125 L 126.278875 -34.559875 " transform="matrix(1, 0, 0, -1, -66.732, -29.888)"/>
<path fill="none" stroke-width="0.74721" stroke-linecap="butt" stroke-linejoin="miter" stroke="rgb(0%, 0%, 0%)" stroke-opacity="1" stroke-miterlimit="10" d="M 119.927312 -59.591125 L 141.224187 -34.930969 " transform="matrix(1, 0, 0, -1, -66.732, -29.888)"/>
<g clip-path="url(#clip-1)">
<path fill="none" stroke-width="0.74721" stroke-linecap="butt" stroke-linejoin="miter" stroke="rgb(0%, 0%, 0%)" stroke-opacity="1" stroke-miterlimit="10" d="M 134.122625 -59.774719 L 155.7945 -34.930969 " transform="matrix(1, 0, 0, -1, -66.732, -29.888)"/>
</g>
<path fill="none" stroke-width="0.74721" stroke-linecap="butt" stroke-linejoin="miter" stroke="rgb(0%, 0%, 0%)" stroke-opacity="1" stroke-miterlimit="10" d="M 74.720281 -59.591125 L 134.122625 -59.774719 " transform="matrix(1, 0, 0, -1, -66.732, -29.888)"/>
<path fill="none" stroke-width="0.74721" stroke-linecap="butt" stroke-linejoin="miter" stroke="rgb(0%, 0%, 0%)" stroke-opacity="1" stroke-miterlimit="10" d="M 85.368719 -47.259094 L 144.771062 -47.446594 " transform="matrix(1, 0, 0, -1, -66.732, -29.888)"/>
<g clip-path="url(#clip-2)">
<path fill="none" stroke-width="0.74721" stroke-linecap="butt" stroke-linejoin="miter" stroke="rgb(0%, 0%, 0%)" stroke-opacity="1" stroke-miterlimit="10" d="M 96.017156 -34.930969 L 155.4195 -35.118469 " transform="matrix(1, 0, 0, -1, -66.732, -29.888)"/>
</g>
<path fill="none" stroke-width="0.74721" stroke-linecap="butt" stroke-linejoin="miter" stroke="rgb(0%, 0%, 0%)" stroke-opacity="1" stroke-miterlimit="10" d="M 75.466375 -89.852844 L 84.060125 -104.79425 " transform="matrix(1, 0, 0, -1, -66.732, -29.888)"/>
<path fill="none" stroke-width="0.74721" stroke-linecap="butt" stroke-linejoin="miter" stroke="rgb(0%, 0%, 0%)" stroke-opacity="1" stroke-miterlimit="10" d="M 91.157781 -89.477844 L 97.696844 -104.423156 " transform="matrix(1, 0, 0, -1, -66.732, -29.888)"/>
<path fill="none" stroke-width="0.74721" stroke-linecap="butt" stroke-linejoin="miter" stroke="rgb(0%, 0%, 0%)" stroke-opacity="1" stroke-miterlimit="10" d="M 120.114812 -90.040344 L 115.817937 -104.79425 " transform="matrix(1, 0, 0, -1, -66.732, -29.888)"/>
<path fill="none" stroke-width="0.74721" stroke-linecap="butt" stroke-linejoin="miter" stroke="rgb(0%, 0%, 0%)" stroke-opacity="1" stroke-miterlimit="10" d="M 134.872625 -90.040344 L 130.38825 -104.79425 " transform="matrix(1, 0, 0, -1, -66.732, -29.888)"/>
<path fill="none" stroke-width="0.74721" stroke-linecap="butt" stroke-linejoin="miter" stroke="rgb(0%, 0%, 0%)" stroke-opacity="1" stroke-miterlimit="10" d="M 74.720281 -74.907531 L 134.122625 -75.095031 " transform="matrix(1, 0, 0, -1, -66.732, -29.888)"/>
<path fill="none" stroke-width="0.74721" stroke-linecap="butt" stroke-linejoin="miter" stroke="rgb(0%, 0%, 0%)" stroke-opacity="1" stroke-miterlimit="10" d="M 75.466375 -89.852844 L 134.872625 -90.040344 " transform="matrix(1, 0, 0, -1, -66.732, -29.888)"/>
<path fill="none" stroke-width="0.74721" stroke-linecap="butt" stroke-linejoin="miter" stroke="rgb(0%, 0%, 0%)" stroke-opacity="1" stroke-miterlimit="10" d="M 84.060125 -104.79425 L 130.38825 -104.79425 " transform="matrix(1, 0, 0, -1, -66.732, -29.888)"/>
<g clip-path="url(#clip-3)">
<path fill="none" stroke-width="0.74721" stroke-linecap="butt" stroke-linejoin="miter" stroke="rgb(0%, 0%, 0%)" stroke-opacity="1" stroke-miterlimit="10" d="M 80.13825 -118.618469 C 80.13825 -116.243469 82.060125 -114.321594 84.435125 -114.321594 C 86.810125 -114.321594 88.732 -116.243469 88.732 -118.618469 C 88.732 -120.993469 86.810125 -122.915344 84.435125 -122.915344 C 82.060125 -122.915344 80.13825 -120.993469 80.13825 -118.618469 Z M 80.13825 -118.618469 " transform="matrix(1, 0, 0, -1, -66.732, -29.888)"/>
</g>
<g clip-path="url(#clip-4)">
<path fill="none" stroke-width="0.74721" stroke-linecap="butt" stroke-linejoin="miter" stroke="rgb(0%, 0%, 0%)" stroke-opacity="1" stroke-miterlimit="10" d="M 93.774969 -118.247375 C 93.774969 -115.868469 95.692937 -113.9505 98.071844 -113.9505 C 100.446844 -113.9505 102.368719 -115.868469 102.368719 -118.247375 C 102.368719 -120.622375 100.446844 -122.540344 98.071844 -122.540344 C 95.692937 -122.540344 93.774969 -120.622375 93.774969 -118.247375 Z M 93.774969 -118.247375 " transform="matrix(1, 0, 0, -1, -66.732, -29.888)"/>
</g>
<g clip-path="url(#clip-5)">
<path fill="none" stroke-width="0.74721" stroke-linecap="butt" stroke-linejoin="miter" stroke="rgb(0%, 0%, 0%)" stroke-opacity="1" stroke-miterlimit="10" d="M 111.896062 -118.618469 C 111.896062 -116.243469 113.814031 -114.321594 116.189031 -114.321594 C 118.567937 -114.321594 120.485906 -116.243469 120.485906 -118.618469 C 120.485906 -120.993469 118.567937 -122.915344 116.189031 -122.915344 C 113.814031 -122.915344 111.896062 -120.993469 111.896062 -118.618469 Z M 111.896062 -118.618469 " transform="matrix(1, 0, 0, -1, -66.732, -29.888)"/>
</g>
<g clip-path="url(#clip-6)">
<path fill="none" stroke-width="0.74721" stroke-linecap="butt" stroke-linejoin="miter" stroke="rgb(0%, 0%, 0%)" stroke-opacity="1" stroke-miterlimit="10" d="M 126.466375 -118.618469 C 126.466375 -116.243469 128.384344 -114.321594 130.76325 -114.321594 C 133.13825 -114.321594 135.056219 -116.243469 135.056219 -118.618469 C 135.056219 -120.993469 133.13825 -122.915344 130.76325 -122.915344 C 128.384344 -122.915344 126.466375 -120.993469 126.466375 -118.618469 Z M 126.466375 -118.618469 " transform="matrix(1, 0, 0, -1, -66.732, -29.888)"/>
</g>
<g clip-path="url(#clip-7)">
<path fill="none" stroke-width="0.74721" stroke-linecap="butt" stroke-linejoin="miter" stroke="rgb(0%, 0%, 0%)" stroke-opacity="1" stroke-miterlimit="10" d="M 84.060125 -104.79425 L 84.435125 -118.618469 " transform="matrix(1, 0, 0, -1, -66.732, -29.888)"/>
</g>
<g clip-path="url(#clip-8)">
<path fill="none" stroke-width="0.74721" stroke-linecap="butt" stroke-linejoin="miter" stroke="rgb(0%, 0%, 0%)" stroke-opacity="1" stroke-miterlimit="10" d="M 97.696844 -104.423156 L 98.071844 -118.247375 " transform="matrix(1, 0, 0, -1, -66.732, -29.888)"/>
</g>
<g clip-path="url(#clip-9)">
<path fill="none" stroke-width="0.74721" stroke-linecap="butt" stroke-linejoin="miter" stroke="rgb(0%, 0%, 0%)" stroke-opacity="1" stroke-miterlimit="10" d="M 115.817937 -104.79425 L 116.189031 -118.618469 " transform="matrix(1, 0, 0, -1, -66.732, -29.888)"/>
</g>
<g clip-path="url(#clip-10)">
<path fill="none" stroke-width="0.74721" stroke-linecap="butt" stroke-linejoin="miter" stroke="rgb(0%, 0%, 0%)" stroke-opacity="1" stroke-miterlimit="10" d="M 130.38825 -104.79425 L 130.76325 -118.618469 " transform="matrix(1, 0, 0, -1, -66.732, -29.888)"/>
</g>
<path fill="none" stroke-width="0.74721" stroke-linecap="butt" stroke-linejoin="miter" stroke="rgb(0%, 0%, 0%)" stroke-opacity="1" stroke-miterlimit="10" d="M 84.435125 -118.618469 L 130.76325 -118.618469 " transform="matrix(1, 0, 0, -1, -66.732, -29.888)"/>
<path fill="none" stroke-width="0.74721" stroke-linecap="butt" stroke-linejoin="miter" stroke="rgb(0%, 0%, 0%)" stroke-opacity="1" stroke-miterlimit="10" d="M 141.224187 -65.102844 C 141.224187 -62.727844 143.142156 -60.805969 145.517156 -60.805969 C 147.896062 -60.805969 149.814031 -62.727844 149.814031 -65.102844 C 149.814031 -67.473937 147.896062 -69.399719 145.517156 -69.399719 C 143.142156 -69.399719 141.224187 -67.473937 141.224187 -65.102844 Z M 141.224187 -65.102844 " transform="matrix(1, 0, 0, -1, -66.732, -29.888)"/>
<g clip-path="url(#clip-11)">
<path fill="none" stroke-width="0.74721" stroke-linecap="butt" stroke-linejoin="miter" stroke="rgb(0%, 0%, 0%)" stroke-opacity="1" stroke-miterlimit="10" d="M 151.868719 -53.337219 C 151.868719 -50.958312 153.790594 -49.040344 156.165594 -49.040344 C 158.540594 -49.040344 160.462469 -50.958312 160.462469 -53.337219 C 160.462469 -55.704406 158.540594 -57.630187 156.165594 -57.630187 C 153.790594 -57.630187 151.868719 -55.704406 151.868719 -53.337219 Z M 151.868719 -53.337219 " transform="matrix(1, 0, 0, -1, -66.732, -29.888)"/>
</g>
<path fill="none" stroke-width="0.74721" stroke-linecap="butt" stroke-linejoin="miter" stroke="rgb(0%, 0%, 0%)" stroke-opacity="1" stroke-miterlimit="10" d="M 141.317937 -79.579406 C 141.317937 -77.2005 143.239812 -75.282531 145.614812 -75.282531 C 147.985906 -75.282531 149.911687 -77.2005 149.911687 -79.579406 C 149.911687 -81.954406 147.985906 -83.872375 145.614812 -83.872375 C 143.239812 -83.872375 141.317937 -81.954406 141.317937 -79.579406 Z M 141.317937 -79.579406 " transform="matrix(1, 0, 0, -1, -66.732, -29.888)"/>
<g clip-path="url(#clip-12)">
<path fill="none" stroke-width="0.74721" stroke-linecap="butt" stroke-linejoin="miter" stroke="rgb(0%, 0%, 0%)" stroke-opacity="1" stroke-miterlimit="10" d="M 151.681219 -69.302062 C 151.681219 -66.927062 153.603094 -65.005187 155.978094 -65.005187 C 158.357 -65.005187 160.274969 -66.927062 160.274969 -69.302062 C 160.274969 -71.680969 158.357 -73.598937 155.978094 -73.598937 C 153.603094 -73.598937 151.681219 -71.680969 151.681219 -69.302062 Z M 151.681219 -69.302062 " transform="matrix(1, 0, 0, -1, -66.732, -29.888)"/>
</g>
<path fill="none" stroke-width="0.74721" stroke-linecap="butt" stroke-linejoin="miter" stroke="rgb(0%, 0%, 0%)" stroke-opacity="1" stroke-miterlimit="10" d="M 140.474187 -93.212219 C 140.474187 -90.837219 142.396062 -88.91925 144.771062 -88.91925 C 147.146062 -88.91925 149.067937 -90.837219 149.067937 -93.212219 C 149.067937 -95.591125 147.146062 -97.509094 144.771062 -97.509094 C 142.396062 -97.509094 140.474187 -95.591125 140.474187 -93.212219 Z M 140.474187 -93.212219 " transform="matrix(1, 0, 0, -1, -66.732, -29.888)"/>
<g clip-path="url(#clip-13)">
<path fill="none" stroke-width="0.74721" stroke-linecap="butt" stroke-linejoin="miter" stroke="rgb(0%, 0%, 0%)" stroke-opacity="1" stroke-miterlimit="10" d="M 149.442937 -86.114562 C 149.442937 -83.739562 151.360906 -81.817687 153.739812 -81.817687 C 156.114812 -81.817687 158.032781 -83.739562 158.032781 -86.114562 C 158.032781 -88.493469 156.114812 -90.411437 153.739812 -90.411437 C 151.360906 -90.411437 149.442937 -88.493469 149.442937 -86.114562 Z M 149.442937 -86.114562 " transform="matrix(1, 0, 0, -1, -66.732, -29.888)"/>
</g>
<g clip-path="url(#clip-14)">
<path fill="none" stroke-width="0.74721" stroke-linecap="butt" stroke-linejoin="miter" stroke="rgb(0%, 0%, 0%)" stroke-opacity="1" stroke-miterlimit="10" d="M 138.982 -108.442687 C 138.982 -106.067687 140.899969 -104.145812 143.278875 -104.145812 C 145.653875 -104.145812 147.571844 -106.067687 147.571844 -108.442687 C 147.571844 -110.809875 145.653875 -112.739562 143.278875 -112.739562 C 140.899969 -112.739562 138.982 -110.809875 138.982 -108.442687 Z M 138.982 -108.442687 " transform="matrix(1, 0, 0, -1, -66.732, -29.888)"/>
</g>
<g clip-path="url(#clip-15)">
<path fill="none" stroke-width="0.74721" stroke-linecap="butt" stroke-linejoin="miter" stroke="rgb(0%, 0%, 0%)" stroke-opacity="1" stroke-miterlimit="10" d="M 147.946844 -101.805969 C 147.946844 -99.430969 149.868719 -97.509094 152.243719 -97.509094 C 154.618719 -97.509094 156.540594 -99.430969 156.540594 -101.805969 C 156.540594 -104.184875 154.618719 -106.102844 152.243719 -106.102844 C 149.868719 -106.102844 147.946844 -104.184875 147.946844 -101.805969 Z M 147.946844 -101.805969 " transform="matrix(1, 0, 0, -1, -66.732, -29.888)"/>
</g>
<path fill="none" stroke-width="0.74721" stroke-linecap="butt" stroke-linejoin="miter" stroke="rgb(0%, 0%, 0%)" stroke-opacity="1" stroke-miterlimit="10" d="M 145.146062 -47.259094 L 145.892156 -80.79425 " transform="matrix(1, 0, 0, -1, -66.732, -29.888)"/>
<g clip-path="url(#clip-16)">
<path fill="none" stroke-width="0.74721" stroke-linecap="butt" stroke-linejoin="miter" stroke="rgb(0%, 0%, 0%)" stroke-opacity="1" stroke-miterlimit="10" d="M 155.7945 -34.930969 L 155.978094 -69.302062 " transform="matrix(1, 0, 0, -1, -66.732, -29.888)"/>
</g>
<g clip-path="url(#clip-17)">
<path fill="none" stroke-width="0.74721" stroke-linecap="butt" stroke-linejoin="miter" stroke="rgb(0%, 0%, 0%)" stroke-opacity="1" stroke-miterlimit="10" d="M 134.497625 -74.907531 L 156.165594 -53.337219 " transform="matrix(1, 0, 0, -1, -66.732, -29.888)"/>
</g>
<g clip-path="url(#clip-18)">
<path fill="none" stroke-width="0.74721" stroke-linecap="butt" stroke-linejoin="miter" stroke="rgb(0%, 0%, 0%)" stroke-opacity="1" stroke-miterlimit="10" d="M 135.243719 -89.852844 L 155.978094 -69.302062 " transform="matrix(1, 0, 0, -1, -66.732, -29.888)"/>
</g>
<g clip-path="url(#clip-19)">
<path fill="none" stroke-width="0.74721" stroke-linecap="butt" stroke-linejoin="miter" stroke="rgb(0%, 0%, 0%)" stroke-opacity="1" stroke-miterlimit="10" d="M 130.38825 -104.79425 L 153.739812 -86.114562 " transform="matrix(1, 0, 0, -1, -66.732, -29.888)"/>
</g>
<g clip-path="url(#clip-20)">
<path fill="none" stroke-width="0.74721" stroke-linecap="butt" stroke-linejoin="miter" stroke="rgb(0%, 0%, 0%)" stroke-opacity="1" stroke-miterlimit="10" d="M 130.76325 -118.618469 L 152.243719 -101.805969 " transform="matrix(1, 0, 0, -1, -66.732, -29.888)"/>
</g>
<path fill="none" stroke-width="0.74721" stroke-linecap="butt" stroke-linejoin="miter" stroke="rgb(0%, 0%, 0%)" stroke-opacity="1" stroke-miterlimit="10" d="M 145.892156 -80.79425 L 144.771062 -93.212219 " transform="matrix(1, 0, 0, -1, -66.732, -29.888)"/>
<g clip-path="url(#clip-21)">
<path fill="none" stroke-width="0.74721" stroke-linecap="butt" stroke-linejoin="miter" stroke="rgb(0%, 0%, 0%)" stroke-opacity="1" stroke-miterlimit="10" d="M 155.978094 -69.302062 L 153.739812 -86.114562 " transform="matrix(1, 0, 0, -1, -66.732, -29.888)"/>
</g>
<path fill="none" stroke-width="0.74721" stroke-linecap="butt" stroke-linejoin="miter" stroke="rgb(0%, 0%, 0%)" stroke-opacity="1" stroke-miterlimit="10" d="M 144.771062 -93.212219 L 143.278875 -108.442687 " transform="matrix(1, 0, 0, -1, -66.732, -29.888)"/>
<g clip-path="url(#clip-22)">
<path fill="none" stroke-width="0.74721" stroke-linecap="butt" stroke-linejoin="miter" stroke="rgb(0%, 0%, 0%)" stroke-opacity="1" stroke-miterlimit="10" d="M 153.739812 -86.114562 L 152.243719 -101.805969 " transform="matrix(1, 0, 0, -1, -66.732, -29.888)"/>
</g>
<path fill="none" stroke-width="2.24162" stroke-linecap="butt" stroke-linejoin="miter" stroke="rgb(0%, 0%, 0%)" stroke-opacity="1" stroke-miterlimit="10" d="M 106.665594 -95.270812 L 106.665594 -101.993469 " transform="matrix(1, 0, 0, -1, -66.732, -29.888)"/>
<path fill="none" stroke-width="2.24162" stroke-linecap="butt" stroke-linejoin="miter" stroke="rgb(0%, 0%, 0%)" stroke-opacity="1" stroke-miterlimit="10" d="M 102.927312 -101.618469 L 110.399969 -101.618469 " transform="matrix(1, 0, 0, -1, -66.732, -29.888)"/>
</svg>
